<svg viewBox="0 0 192 192" xmlns="http://www.w3.org/2000/svg">
  <rect width="192" height="192" rx="40" fill="#fff8f1"/>
  <defs>
    <linearGradient id="c" x1="0" y1="0" x2="0" y2="1">
      <stop offset="0%" stop-color="#FFB1A3"/>
      <stop offset="100%" stop-color="#FF7867"/>
    </linearGradient>
    <linearGradient id="s" x1="0" y1="0" x2="0" y2="1">
      <stop offset="0%" stop-color="#A7D2EC"/>
      <stop offset="100%" stop-color="#5BA4D2"/>
    </linearGradient>
  </defs>
  <path d="M 96 40 C 88 30, 74 24, 60 24 C 35 24, 16 43, 16 68 C 16 98, 43 123, 84 160 L 96 171 L 96 40 Z" fill="url(#c)"/>
  <path d="M 96 40 C 104 30, 118 24, 132 24 C 157 24, 176 43, 176 68 C 176 98, 149 123, 108 160 L 96 171 L 96 40 Z" fill="url(#s)"/>
  <rect x="66" y="87" width="60" height="10.5" rx="5.25" fill="#FFF8F1" opacity="0.92"/>
</svg>
