<svg viewBox="0 0 64 64" xmlns="http://www.w3.org/2000/svg">
  <defs>
    <linearGradient id="c" x1="0" y1="0" x2="0" y2="1">
      <stop offset="0%" stop-color="#FFB1A3"/>
      <stop offset="100%" stop-color="#FF7867"/>
    </linearGradient>
    <linearGradient id="s" x1="0" y1="0" x2="0" y2="1">
      <stop offset="0%" stop-color="#A7D2EC"/>
      <stop offset="100%" stop-color="#5BA4D2"/>
    </linearGradient>
  </defs>
  <path d="M 32 13.6 C 29 10, 24.6 8, 20 8 C 11.8 8, 5.3 14.4, 5.3 22.7 C 5.3 32.7, 14.4 41, 28.1 53.4 L 32 57 L 32 13.6 Z" fill="url(#c)"/>
  <path d="M 32 13.6 C 35 10, 39.4 8, 44 8 C 52.2 8, 58.7 14.4, 58.7 22.7 C 58.7 32.7, 49.6 41, 35.9 53.4 L 32 57 L 32 13.6 Z" fill="url(#s)"/>
  <rect x="22" y="29" width="20" height="3.5" rx="1.75" fill="#FFF8F1" opacity="0.92"/>
</svg>
